# xmcd
#
# Track frame offsets:
#	150
#	12702
#	23177
#	36095
#	56190
#	71312
#	86542
#	99129
#	113860
#	124915
#	142745
#	156343
#	169257
#	186311
#	200536
#	214810
#	227096
#	241323
#	253366
#
# Disc length: 3523 seconds
#
# Revision: 1
# Processed by: cddbd v1.5.2PL0 Copyright (c) Steve Scherf et al.
# Submitted via: EasyCDDAExtractor 10.0.2.1
#
DISCID=100dc113
DTITLE=Johnny Cash - The Legendary [CD 2]
DYEAR=2005
DGENRE=Country
TTITLE0=Ballad Of A Teenage Queen
TTITLE1=Hey Porter
TTITLE2=Wanted Man
TTITLE3=Let Him Roll
TTITLE4=A Backstage Pass
TTITLE5=The Night Hank Jennings Came To Town
TTITLE6=Family Bible
TTITLE7=Cat's In The Cradle
TTITLE8=Don't Go Near The Water
TTITLE9=Hidden Shame
TTITLE10=That's One You Owe Me
TTITLE11=I Love You Love You
TTITLE12=Farmer's Almanac
TTITLE13=Monteagle Mountain
TTITLE14=The Mystery Of Life
TTITLE15=Sixteen Tons
TTITLE16=I'd Rather Have You
TTITLE17=The Big Light
TTITLE18=Supper Time
EXTD=
EXTT0=
EXTT1=
EXTT2=
EXTT3=
EXTT4=
EXTT5=
EXTT6=
EXTT7=
EXTT8=
EXTT9=
EXTT10=
EXTT11=
EXTT12=
EXTT13=
EXTT14=
EXTT15=
EXTT16=
EXTT17=
EXTT18=
PLAYORDER=
